# xmcd CD database file
#
# Track frame offsets:
#	150
#	10958
#	28976
#	42637
#	62563
#	80513
#	92191
#	104953
#	118822
#	129423
#	144156
#	159692
#	179174
#	192760
#	209703
#	225411
#
# Disc length: 3163 seconds
#
# Revision: 2
# Processed by: cddbd v1.5.2PL0 Copyright (c) Steve Scherf et al.
# Submitted via: CDex 1.51
#
DISCID=ef0c5910
DTITLE=Heino - Caramba, Caracho, ein Whisky
DYEAR=1999
DGENRE=Volksmusik
TTITLE0=Wir lieben die Stürme
TTITLE1=In einem anderen Land
TTITLE2=Griechischer Wein
TTITLE3=Der schwarze Korsar
TTITLE4=Freunde der Nacht
TTITLE5=Kehr ich einst zur Heimat wieder
TTITLE6=Caramba, Caracho, ein Whisky
TTITLE7=Wir lagen vor Madagaskar
TTITLE8=Lang, lang ist's her
TTITLE9=In einer Bar in Mexico
TTITLE10=La Paloma
TTITLE11=Mohokana Shalali
TTITLE12=San Bernardino
TTITLE13=Capri Fischer
TTITLE14=Casablanca-Träume, die nie vergehen
TTITLE15=So ein Tag, so wunderschön wie heute
EXTD=YEAR: 1999
EXTT0=
EXTT1=
EXTT2=
EXTT3=
EXTT4=
EXTT5=
EXTT6=
EXTT7=
EXTT8=
EXTT9=
EXTT10=
EXTT11=
EXTT12=
EXTT13=
EXTT14=
EXTT15=
PLAYORDER=
